<svg version="1.1" xmlns="http://www.w3.org/2000/svg" style="display: block;" viewBox="0 0 2048 2048" width="1254" height="1254" preserveAspectRatio="none">
<defs>
	<linearGradient id="Gradient1" gradientUnits="userSpaceOnUse" x1="1118.5" y1="1973.81" x2="928.082" y2="79.0242">
		<stop class="stop0" offset="0" stop-opacity="1" stop-color="rgb(42,30,80)"/>
		<stop class="stop1" offset="1" stop-opacity="1" stop-color="rgb(73,48,130)"/>
	</linearGradient>
</defs>
<path transform="translate(0,0)" fill="url(#Gradient1)" d="M 925.765 125.5 C 929.936 124.731 939.293 124.957 943.897 125 C 1050.2 125.98 1156.82 123.537 1263.03 128.195 C 1282.75 130.147 1306.22 125.269 1325.18 126.286 C 1367.35 128.548 1409.39 128.194 1451.55 128.212 L 1554.85 128.214 C 1605.55 128.152 1657.04 127.465 1706.82 138.687 C 1726.32 143.083 1749.59 159.349 1767.77 168.195 C 1790.37 179.194 1811.83 192.352 1830.04 209.852 C 1837.18 216.712 1841.8 228.899 1848.87 236.268 C 1878.31 272.039 1899.42 314.474 1909.79 359.667 C 1915.96 386.575 1917 414.152 1917.07 441.783 L 1917 1298.87 L 1917.01 1530.57 C 1917.01 1566.84 1917.64 1604.07 1916.64 1640.28 C 1914.6 1713.47 1882.7 1784.55 1830.87 1836.34 C 1791.19 1875.97 1741.26 1903.78 1686.68 1916.67 C 1646.06 1926.21 1606.46 1924.38 1565.08 1924.38 L 1462.71 1924.48 L 1121.5 1924.34 L 642.889 1924.44 L 496.904 1924.58 C 452.608 1924.5 409.922 1926.85 366.4 1917.31 C 310.652 1904.95 259.506 1877.16 218.809 1837.11 C 176.378 1795.08 147.482 1741.32 135.831 1682.75 C 128.475 1644.36 130.798 1581.38 130.819 1540.14 L 130.879 1330.03 L 130.079 532.738 C 130.123 509.324 130.322 485.911 130.675 462.5 C 130.851 442.428 130.287 418.584 132.063 398.889 C 137.797 330.697 167.581 266.762 216.098 218.501 C 255.012 179.386 303.811 151.563 357.292 137.998 C 406.268 125.869 461.204 128.232 511.662 128.248 L 654.816 128.214 L 925.765 125.5 z"/>
<path transform="translate(0,0)" fill="rgb(254,254,254)" d="M 682.213 528.407 C 729.837 522.646 784.681 535.318 827.083 557.302 C 892.794 591.857 942.045 651.149 963.961 722.083 L 1364.11 721.974 L 1510.58 721.929 C 1536.54 721.919 1562.99 720.848 1588.88 722.251 C 1594.36 722.549 1599.17 723.623 1604.1 726.138 C 1612.39 730.37 1617.41 736.639 1620.11 745.537 C 1624.66 760.551 1621.86 830.146 1621.89 850.231 C 1621.93 876.384 1623.66 903.546 1621.89 929.582 C 1621.52 935.102 1620.87 941.428 1618.18 946.325 C 1612.03 957.513 1537.32 1033.47 1524.31 1044.03 C 1521.52 1046.29 1518.81 1047.62 1515.35 1048.55 C 1509.17 1050.21 1501.72 1050.32 1495.83 1047.5 C 1483.85 1041.76 1438.37 990.918 1425.83 977.798 C 1421.98 973.768 1415.87 965.475 1410.81 963.437 C 1408.57 962.535 1407.42 962.949 1405.38 964.068 C 1399.04 967.541 1392.8 976.339 1387.9 981.704 C 1375.73 995.028 1328.31 1051.08 1315.29 1055.32 C 1306.46 1058.19 1299.32 1056.24 1291.26 1052.22 C 1275.59 1039.85 1261.72 1023.1 1246.51 1010.27 C 1223.18 990.611 1231.02 949.845 1230.91 920.123 C 1201.03 919.462 1168.82 920.07 1138.79 920.07 L 960.226 920.031 C 948.589 946.808 937.275 967.515 918.828 990.668 C 874.272 1045.97 809.568 1081.31 738.954 1088.9 C 665.177 1097.02 591.214 1075.33 533.511 1028.65 C 474.389 980.536 436.771 910.935 428.913 835.119 C 421.525 760.335 444.359 685.703 492.327 627.855 C 541.054 568.897 606.526 535.556 682.213 528.407 z"/>
<path transform="translate(0,0)" fill="rgb(55,37,102)" d="M 695.69 591.428 C 702.064 590.923 710.336 590.964 716.705 591.289 C 795.717 595.908 865.135 645.283 895.423 718.405 C 905.949 744.255 906.256 783.356 939.357 783.592 C 956.218 783.712 973.358 783.728 990.229 783.711 L 1100.6 783.644 L 1407.05 783.621 C 1455.99 783.644 1513.82 782.02 1561.82 783.889 C 1562.64 797.227 1562 817.315 1562 831.064 L 1562.02 920.291 C 1545.55 938.94 1525 960.193 1507.57 978.134 C 1486.74 957.667 1467.1 933.697 1445.85 912.944 C 1432.24 898.441 1410.6 904.103 1392.49 903.142 C 1374.41 902.182 1355.88 928.519 1344.54 941.272 C 1331.3 956.286 1317.92 971.177 1304.41 985.943 C 1296.55 978.862 1290.13 975.383 1290.19 964.25 C 1290.19 939.61 1290.48 915.007 1290.31 890.339 C 1290.19 874.241 1280.74 859.966 1263.58 859.319 C 1245.17 858.625 1226.47 858.988 1208.03 858.99 L 1096.48 859.019 L 991.296 859.01 C 973.43 859.009 954.407 858.584 936.635 859.483 C 929.174 859.861 922.07 861.46 916.845 867.186 C 905.61 879.498 901.996 898.878 893.756 914.599 C 885.403 930.536 881.56 936.76 870.149 950.725 C 835.285 993.901 784.525 1021.25 729.29 1026.61 C 672.777 1032.07 616.441 1014.59 572.952 978.088 C 526.804 939.27 498.221 883.513 493.644 823.384 C 489.102 766.081 507.516 709.322 544.832 665.599 C 583.718 620.3 636.657 595.81 695.69 591.428 z"/>
<path transform="translate(0,0)" fill="rgb(254,254,254)" d="M 605.78 714.366 C 654.823 707.353 700.233 741.518 707.084 790.585 C 713.935 839.651 679.619 884.948 630.53 891.635 C 581.671 898.292 536.632 864.172 529.814 815.335 C 522.995 766.498 556.965 721.347 605.78 714.366 z"/>
<path transform="translate(0,0)" fill="rgb(55,37,102)" d="M 612.514 747.541 C 643.055 744.225 670.499 766.297 673.81 796.838 C 677.121 827.378 655.043 854.819 624.502 858.124 C 593.969 861.429 566.537 839.358 563.227 808.825 C 559.917 778.293 581.982 750.856 612.514 747.541 z"/>
<path transform="translate(0,0)" fill="rgb(254,254,254)" d="M 915.384 1381.21 L 917.074 1381.13 C 1011.82 1376.94 1011.21 1534.55 921.683 1535.81 C 905.084 1536.05 893.702 1530.13 882.211 1518.61 L 882.043 1552.48 C 881.887 1564.85 887.573 1591.99 870.865 1593.21 C 863.377 1593.76 846.741 1595.44 846.555 1584.31 C 845.521 1522.44 846.052 1460.43 846.254 1398.53 C 845.327 1386.58 852.044 1383.76 863.188 1383.68 C 878.799 1383.56 881.351 1385.3 881.894 1399.82 C 892.883 1387.87 899.483 1384.09 915.384 1381.21 z"/>
<path transform="translate(0,0)" fill="rgb(55,37,102)" d="M 913.899 1414.27 C 960.531 1413.98 966.22 1491.76 920.254 1501.85 C 871.359 1504.92 867.207 1423.02 913.899 1414.27 z"/>
<path transform="translate(0,0)" fill="rgb(170,149,217)" d="M 1250.65 1323.24 C 1263.02 1322.86 1276.26 1323 1288.64 1322.95 C 1315.33 1322.83 1344.03 1321.06 1364.83 1340.93 C 1377.95 1353.64 1384.66 1370.74 1384.38 1389.04 C 1383.55 1441.91 1349.04 1457.76 1303.25 1457.82 L 1279.72 1457.82 C 1279.39 1476.86 1280.09 1496.04 1279.92 1515.09 C 1279.87 1519.84 1279.65 1526.59 1275.52 1529.83 C 1270.51 1533.77 1258.48 1532.2 1252.27 1532.24 C 1249.17 1532.26 1245.87 1529.79 1244.23 1527.2 C 1242.59 1524.59 1242.4 1519.97 1242.38 1516.71 C 1242.19 1481.55 1242.18 1449.25 1242.27 1413.83 C 1242.34 1388.68 1241.52 1356.75 1243.16 1331.17 C 1243.37 1327.92 1247.94 1325.02 1250.65 1323.24 z"/>
<path transform="translate(0,0)" fill="rgb(55,37,102)" d="M 1279.76 1357.88 C 1292.51 1357.78 1305.33 1357.24 1318.02 1358.41 C 1347.25 1361.11 1354.62 1392.2 1338.15 1413.51 C 1322.23 1426.4 1300.32 1423.11 1279.84 1422.91 C 1279.34 1401.52 1279.69 1379.33 1279.76 1357.88 z"/>
<path transform="translate(0,0)" fill="rgb(170,149,217)" d="M 1605.85 1323.11 C 1606.6 1323.07 1607.35 1323.05 1608.1 1323.03 C 1620.35 1322.84 1632.81 1323.01 1645.05 1322.93 C 1670.96 1322.67 1699.42 1321.93 1719.2 1341.77 C 1743.34 1365.97 1742.93 1414.62 1718.7 1438.65 C 1701.04 1456.16 1679.22 1457.87 1655.5 1457.8 L 1634.91 1457.85 C 1634.62 1478.64 1635.71 1500.63 1634.7 1521.44 C 1634.27 1530.41 1627.95 1532.3 1620.13 1532.33 C 1612.12 1532.37 1598.75 1534.59 1598.11 1522.29 C 1597.78 1507.67 1597.92 1493.32 1597.91 1478.85 L 1597.89 1395.29 C 1597.89 1375.37 1597.61 1352 1598.28 1331.89 C 1598.41 1328.06 1602.78 1325.3 1605.85 1323.11 z"/>
<path transform="translate(0,0)" fill="rgb(55,37,102)" d="M 1634.99 1357.98 C 1650.24 1357.77 1677.15 1355.01 1689.35 1364.94 C 1703.56 1376.52 1702.27 1400.15 1691.33 1413.8 C 1676.29 1426.43 1654.34 1423.15 1635 1422.83 C 1634.68 1401.42 1634.96 1379.43 1634.99 1357.98 z"/>
<path transform="translate(0,0)" fill="rgb(254,254,254)" d="M 724.473 1401.35 C 725.646 1400 726.837 1398.66 728.046 1397.34 C 746.8 1376.98 782.535 1375.16 802.948 1394.17 C 821.507 1411.46 818.423 1441.83 818.331 1465.11 C 818.124 1480.96 818.139 1496.82 818.375 1512.68 C 818.769 1535.92 810.051 1533.43 788.398 1531.31 C 778.848 1528.06 783.1 1507.43 782.168 1502.48 C 778.259 1481.71 795.648 1415.01 761.721 1414.59 C 731.283 1414.21 734.482 1444.84 734.7 1465.62 C 734.833 1478.28 734.756 1491.27 734.785 1504 C 734.892 1509.67 735.407 1515.79 734.725 1521.42 C 734.331 1524.66 733.165 1527.91 730.394 1529.87 C 725.035 1533.67 712.772 1533.24 706.496 1531.97 C 702.496 1531.16 700.432 1528.27 699.246 1524.63 C 697.103 1518.06 697.959 1509.62 698.029 1502.75 C 698.207 1485.16 702.203 1436.22 693.59 1423.15 C 690.586 1418.59 685.258 1415.95 679.979 1415.05 C 673.56 1413.94 665.109 1415.53 659.844 1419.5 C 641.315 1433.46 653.571 1497.35 650.065 1519.87 C 649.433 1523.93 647.893 1527.94 644.379 1530.35 C 639.38 1533.76 627.263 1533.28 621.45 1532.12 C 618.522 1531.54 616.018 1529.49 614.647 1526.85 C 613.701 1525.03 613.358 1523.13 613.248 1521.1 C 612.518 1507.78 612.104 1394.79 614.529 1389.82 C 616.202 1386.4 620.284 1384.65 623.793 1383.88 C 629.694 1382.58 639.126 1382.72 644.156 1386.61 C 647.603 1389.27 647.63 1391.98 648.039 1396.04 L 648.165 1397.4 C 658.195 1386.44 664.508 1383.42 678.921 1381.3 C 682.813 1381.02 686.721 1381.06 690.607 1381.41 C 705.971 1382.77 715.132 1390.25 724.473 1401.35 z"/>
<path transform="translate(0,0)" fill="rgb(170,149,217)" d="M 1484.68 1320.36 C 1511.15 1316.35 1537.01 1326.58 1556.12 1345.03 C 1571.65 1360.02 1540.96 1378.33 1539.14 1377.41 C 1525.13 1369.35 1518.62 1358.4 1500.83 1356.05 C 1424.15 1345.9 1420.84 1502.75 1495.09 1500.27 C 1510.45 1499.76 1521.26 1494.59 1531.93 1484.31 L 1531.87 1453.47 C 1506.38 1453.31 1483.35 1461.95 1490.6 1425.21 C 1491.26 1421.9 1495.17 1420.42 1497.84 1419.47 C 1508.75 1419.33 1556.43 1417.17 1563.19 1421.57 C 1571.66 1433.02 1566.68 1468.36 1567.77 1483.24 C 1567.45 1490.26 1567.36 1499.18 1562.47 1504.57 C 1506.99 1565.76 1413.13 1533.24 1404.78 1451.43 C 1398.45 1389.43 1419.12 1328.89 1484.68 1320.36 z"/>
<path transform="translate(0,0)" fill="rgb(254,254,254)" d="M 435.377 1317.38 C 459.912 1314.85 487.187 1323.83 504.467 1341.55 C 517.747 1355.17 508.47 1360.88 497.685 1370.21 C 492.543 1374.65 489.11 1378.28 482.707 1372.69 C 472.224 1363.54 461.752 1353.59 446.984 1352.87 C 429.394 1351.86 408.579 1358.22 408.779 1379.35 C 408.895 1391.58 422.094 1398.84 432.263 1402.79 C 455.099 1411.65 481.57 1416.17 500.345 1433.07 C 524.189 1453.88 523.559 1494.45 502.195 1516.73 C 484.823 1534.86 464.102 1537.97 440.268 1538.58 C 423.044 1537.89 407.27 1535.23 392.064 1525.91 C 384.693 1521.39 359.957 1503.36 368.727 1492.9 C 372.905 1487.91 383.879 1477.51 390.559 1477.33 C 398.699 1477.12 405.392 1489.57 411.908 1493.7 C 423.973 1502.49 437.63 1503.99 452.153 1502.31 C 465.03 1502.75 483.951 1486.89 478.635 1471.45 C 468.463 1441.91 410.26 1444.82 388.815 1422.65 C 377.575 1411.02 371.738 1404.61 370.094 1389.94 C 365.112 1345.47 394.169 1321.65 435.377 1317.38 z"/>
<path transform="translate(0,0)" fill="rgb(254,254,254)" d="M 1138.54 1381.34 C 1139.26 1381.27 1139.98 1381.2 1140.71 1381.15 C 1183.24 1378.2 1210.92 1409.39 1212.63 1450.23 C 1213.02 1459.33 1212.61 1468.83 1201.17 1469.68 C 1190.46 1470.47 1179.69 1470.11 1168.95 1470.07 C 1149.61 1469.94 1130.26 1469.96 1110.92 1470.11 C 1117.55 1499.28 1140.57 1511.82 1169.64 1497.51 C 1182.42 1491.22 1179.6 1480.61 1196.01 1492.73 C 1200.5 1496.29 1204.53 1498.7 1206.31 1504 C 1205.8 1520.1 1172.5 1533.06 1158.55 1535.25 C 1058.25 1550.97 1042.45 1392.96 1138.54 1381.34 z"/>
<path transform="translate(0,0)" fill="rgb(55,37,102)" d="M 1140.92 1413.17 C 1162.81 1411.87 1173.09 1422.37 1177.26 1442.89 L 1149.5 1442.89 L 1111.31 1442.84 C 1116.54 1425.59 1122.76 1416.9 1140.92 1413.17 z"/>
<path transform="translate(0,0)" fill="rgb(254,254,254)" d="M 1018.84 1316.05 C 1028.77 1315.72 1038.64 1313.48 1045.86 1321.12 C 1047.05 1325.18 1047.56 1330.56 1047.6 1334.81 C 1047.89 1373.5 1047.8 1412.5 1047.81 1451.18 L 1047.82 1497.93 C 1047.82 1505.98 1047.95 1514.47 1047.59 1522.51 C 1047.38 1527.09 1044.29 1529.54 1040.97 1532.07 C 1032.81 1532.4 1018.18 1534.66 1012.66 1527.35 C 1011.36 1525.62 1011.13 1518.24 1011.11 1515.77 C 1010.83 1473.54 1010.92 1431.29 1010.92 1389.06 L 1010.93 1346 C 1010.94 1333.51 1007.81 1323.51 1018.84 1316.05 z"/>
<path transform="translate(0,0)" fill="rgb(254,254,254)" d="M 551.521 1384.08 L 554.474 1384.01 C 563.66 1383.83 573.009 1382.23 579.657 1388.61 C 583.461 1399.76 580.918 1503.82 581.037 1523.94 C 581.057 1527.48 577.575 1529.9 574.847 1532.05 C 566.384 1532.37 552.886 1534.46 546.773 1527.92 C 541.206 1505.75 547.098 1462.17 544.964 1438.03 C 543.768 1424.5 545.747 1407.15 545.191 1393.32 C 545.016 1388.96 548.364 1386.54 551.521 1384.08 z"/>
<path transform="translate(0,0)" fill="rgb(254,254,254)" d="M 557.081 1321.49 C 568.327 1318.11 580.203 1324.39 583.747 1335.59 C 587.29 1346.78 581.188 1358.75 570.046 1362.45 C 562.691 1364.9 554.589 1363.2 548.843 1358 C 543.098 1352.79 540.599 1344.9 542.306 1337.34 C 544.012 1329.78 549.658 1323.72 557.081 1321.49 z"/>
</svg>